<?xml version="1.0" standalone="no"?><svg xmlns="http://www.w3.org/2000/svg" viewBox="0 0 1440 320"><path fill="#1f2937" fill-opacity="1" d="M0,224L6.2,234.7C12.3,245,25,267,37,234.7C49.2,203,62,117,74,85.3C86.2,53,98,75,111,74.7C123.1,75,135,53,148,37.3C160,21,172,11,185,48C196.9,85,209,171,222,213.3C233.8,256,246,256,258,234.7C270.8,213,283,171,295,165.3C307.7,160,320,192,332,208C344.6,224,357,224,369,208C381.5,192,394,160,406,128C418.5,96,431,64,443,80C455.4,96,468,160,480,154.7C492.3,149,505,75,517,37.3C529.2,0,542,0,554,42.7C566.2,85,578,171,591,186.7C603.1,203,615,149,628,117.3C640,85,652,75,665,69.3C676.9,64,689,64,702,90.7C713.8,117,726,171,738,202.7C750.8,235,763,245,775,234.7C787.7,224,800,192,812,176C824.6,160,837,160,849,160C861.5,160,874,160,886,138.7C898.5,117,911,75,923,80C935.4,85,948,139,960,165.3C972.3,192,985,192,997,181.3C1009.2,171,1022,149,1034,154.7C1046.2,160,1058,192,1071,170.7C1083.1,149,1095,75,1108,74.7C1120,75,1132,149,1145,170.7C1156.9,192,1169,160,1182,144C1193.8,128,1206,128,1218,117.3C1230.8,107,1243,85,1255,74.7C1267.7,64,1280,64,1292,58.7C1304.6,53,1317,43,1329,58.7C1341.5,75,1354,117,1366,149.3C1378.5,181,1391,203,1403,202.7C1415.4,203,1428,181,1434,170.7L1440,160L1440,0L1433.8,0C1427.7,0,1415,0,1403,0C1390.8,0,1378,0,1366,0C1353.8,0,1342,0,1329,0C1316.9,0,1305,0,1292,0C1280,0,1268,0,1255,0C1243.1,0,1231,0,1218,0C1206.2,0,1194,0,1182,0C1169.2,0,1157,0,1145,0C1132.3,0,1120,0,1108,0C1095.4,0,1083,0,1071,0C1058.5,0,1046,0,1034,0C1021.5,0,1009,0,997,0C984.6,0,972,0,960,0C947.7,0,935,0,923,0C910.8,0,898,0,886,0C873.8,0,862,0,849,0C836.9,0,825,0,812,0C800,0,788,0,775,0C763.1,0,751,0,738,0C726.2,0,714,0,702,0C689.2,0,677,0,665,0C652.3,0,640,0,628,0C615.4,0,603,0,591,0C578.5,0,566,0,554,0C541.5,0,529,0,517,0C504.6,0,492,0,480,0C467.7,0,455,0,443,0C430.8,0,418,0,406,0C393.8,0,382,0,369,0C356.9,0,345,0,332,0C320,0,308,0,295,0C283.1,0,271,0,258,0C246.2,0,234,0,222,0C209.2,0,197,0,185,0C172.3,0,160,0,148,0C135.4,0,123,0,111,0C98.5,0,86,0,74,0C61.5,0,49,0,37,0C24.6,0,12,0,6,0L0,0Z"></path></svg>